# xmcd
#
# Track frame offsets:
#	150
#	20692
#	41204
#	62117
#	80632
#	98154
#	117338
#	137179
#	150371
#	163253
#	177064
#	202067
#
# Disc length: 2849 seconds
#
# Revision: 0
# Processed by: cddbd v1.5.2PL0 Copyright (c) Steve Scherf et al.
# Submitted via: EasyCDDAExtractor 9.1.3.1
#
DISCID=a70b1f0c
DTITLE=Clint Black - The Love Songs
DYEAR=2007
DGENRE=Country
TTITLE0=When I Said I Do (duet with Lisa Hartman Black)
TTITLE1=You Made Me Feel
TTITLE2=Something That We Do
TTITLE3=Our Kind Of Love (duet with Carolyn Dawn Johnson)
TTITLE4=My Imagination
TTITLE5=Like The Rain
TTITLE6=You Know It All
TTITLE7=That Something In My Life
TTITLE8=One Emotion
TTITLE9=Half The Man
TTITLE10=Easy For Me To Say (duet with Lisa Hartman Black)
TTITLE11=I'll Have To Say I Love You In A Song#
EXTD=
EXTT0=
EXTT1=
EXTT2=
EXTT3=
EXTT4=
EXTT5=
EXTT6=
EXTT7=
EXTT8=
EXTT9=
EXTT10=
EXTT11=
PLAYORDER=
